<?xml version="1.0" standalone="no"?><!DOCTYPE svg PUBLIC "-//W3C//DTD SVG 1.1//EN" "http://www.w3.org/Graphics/SVG/1.1/DTD/svg11.dtd"><svg t="1500827687311" class="icon" style="" viewBox="0 0 1024 1024" version="1.1" xmlns="http://www.w3.org/2000/svg" p-id="5080" xmlns:xlink="http://www.w3.org/1999/xlink" width="100" height="100"><defs><style type="text/css"></style></defs><path d="M890.059904 543.80051C845.890699 437.043294 840.554889 347.504845 857.396326 277.57286 859.144623 270.313269 860.991676 264.022321 862.858846 258.574818 863.763607 255.935159 865.906573 250.340111 866.16406 249.467349L880.890349 199.551892 833.062903 220.069003C832.106692 220.4792 830.618069 221.105284 827.426684 222.449508 824.667648 223.619034 822.310677 224.645978 819.868514 225.755191 813.291441 228.742455 807.049466 231.909062 800.697749 235.587155 784.089623 245.204435 768.486253 257.343104 753.86285 272.966404 727.630498 300.992437 706.526618 338.233645 691.78157 386.286769 675.041103 440.842839 671.516484 484.53994 673.004574 548.060166 673.477918 568.265231 673.463923 573.802417 672.83965 577.675785 673.779618 571.843661 684.455526 562.321801 696.104608 566.804324 693.056849 565.631558 685.695898 556.987172 676.314007 534.631661 660.550914 497.07079 646.834249 435.829728 636.817284 346.649532 625.445924 245.411232 630.103925 161.271948 644.646978 94.661372 647.677924 80.778935 650.899934 68.917565 654.086773 59.095391 655.91465 53.461684 657.254607 49.905343 657.880284 48.445615L678.645286 0 628.243642 15.421969C617.409833 18.736913 599.94569 26.47761 578.105438 40.154777 542.547644 62.422374 507.199569 93.614964 474.400401 135.163224 447.596676 169.116772 423.611383 208.69939 403.118547 254.298381 378.907516 308.170805 363.003277 353.201056 353.158029 392.761538 349.274261 408.367415 346.433259 422.676373 344.1945 437.074844 343.334411 442.60647 342.592734 447.936766 341.804612 454.088156 341.502524 456.446003 340.356619 465.670449 340.073506 467.854496 337.596047 486.966707 335.848224 491.64663 329.235273 497.687132 336.081933 491.433152 343.232634 491.901773 346.608002 493.913244 344.852318 492.866987 341.598345 489.506349 337.991853 484.112851 327.030897 467.720774 317.980358 441.116838 313.690598 406.660405 311.250185 387.058402 310.203772 356.91373 310.370048 319.454675 310.480474 294.577862 311.113088 267.877521 312.099068 241.022112 312.481453 230.606987 312.891081 220.894534 313.30045 212.150825 313.545346 206.920081 313.735044 203.186895 313.84201 201.216597L317.55517 132.820512 271.360516 183.395861C270.467691 184.373355 268.852992 186.162958 266.618705 188.673705 262.927895 192.821195 258.823678 197.506249 254.407949 202.638531 241.78797 217.306394 229.164348 232.659575 217.341267 247.995964 211.724185 255.282197 206.411389 262.408655 201.450577 269.336162 176.017063 304.852695 156.617347 340.597472 138.122768 383.844503 90.841957 494.404188 76.97672 596.351294 99.261816 707.865107 126.80821 845.706261 188.553235 933.644222 278.8297 980.690336 344.19104 1014.752337 408.837235 1024 507.940695 1024 525.713007 1024 557.977207 1021.567138 590.857378 1016.462159 641.152493 1008.653331 687.496192 995.789323 726.063273 976.591044 738.155853 970.571488 743.07901 955.888702 737.059454 943.796122 731.039898 931.703543 716.357111 926.780384 704.264531 932.79994 670.855859 949.430419 629.092954 961.022897 583.352478 968.12457 552.984316 972.839535 523.228215 975.083275 507.940695 975.083275 416.16215 975.083275 357.934257 966.753754 301.436271 937.310746 224.830174 897.388723 171.977796 822.11577 147.230072 698.279055 126.99711 597.034048 139.514783 504.995189 183.099329 403.078716 200.282663 362.89785 218.020237 330.215642 241.22153 297.816282 245.831691 291.378441 250.802959 284.710101 256.082244 277.862039 267.31885 263.286404 279.402035 248.590513 291.488864 234.542319 298.732051 226.123757 304.338773 219.823287 307.478705 216.385594L264.997214 198.564858C264.883874 200.652555 264.688038 204.506489 264.43725 209.86312 264.020474 218.765035 263.603959 228.640719 263.215279 239.227375 262.21142 266.569788 261.566827 293.775586 261.453805 319.237542 261.278897 358.641182 262.385015 390.50582 265.148621 412.703791 276.058157 500.331917 322.627019 569.975503 362.226031 533.804382 379.341732 518.170302 384.756649 503.671477 388.584361 474.142814 397.932742 402.025286 407.332926 364.253175 447.736538 274.35034 466.587287 232.405182 488.484326 196.268782 512.795234 165.473004 542.034492 128.434251 573.156162 100.971215 604.068111 81.613016 614.696751 74.956971 624.472062 69.798572 633.124687 65.963437 638.02329 63.792212 641.258688 62.595009 642.556233 62.197984L612.91959 29.174337C608.658554 39.115516 602.686705 57.521384 596.856038 84.227201 581.186705 155.996406 576.231674 245.501015 588.206246 352.109655 607.295279 522.057739 638.819345 597.17443 678.537329 612.457766 701.302332 621.217655 717.731637 606.564331 721.133156 585.4593 722.475759 577.129001 722.489387 571.736597 721.907881 546.914509 720.532565 488.208147 723.691247 449.047827 738.546223 400.63645 751.151827 359.55562 768.544047 328.864237 789.576147 306.394033 809.230566 285.39571 821.725461 278.160284 852.347733 265.023883L842.705318 242.546443 819.246577 235.625536C822.235501 225.494436 813.450321 251.12537 809.839253 266.119881 790.647573 345.810953 796.611315 445.8865 844.8591 562.501668 883.105728 654.943983 874.587669 769.935076 824.002925 834.602871 815.680378 845.242455 817.558709 860.6143 828.198295 868.936847 838.837879 877.259392 854.209724 875.38106 862.532269 864.741476 924.762731 785.185737 934.658528 651.595637 890.059904 543.80051Z" p-id="5081" fill="#d81e06"></path></svg>